<svg width="137" height="55" viewBox="0 0 137 55" fill="none"
  xmlns="http://www.w3.org/2000/svg">
  <path d="M16.272 23.04V23.184C18.12 23.352 19.44 23.988 20.232 25.092C21.024 26.172 21.42 27.744 21.42 29.808C21.42 32.304 20.784 34.008 19.512 34.92C18.24 35.832 16.068 36.288 12.996 36.288C8.388 36.288 4.896 36.192 2.52 36V11.16C4.656 10.968 7.764 10.872 11.844 10.872C15.156 10.872 17.448 11.328 18.72 12.24C19.992 13.128 20.628 14.832 20.628 17.352C20.628 19.152 20.28 20.52 19.584 21.456C18.912 22.368 17.808 22.896 16.272 23.04ZM7.884 21.312H11.88C13.224 21.312 14.136 21.096 14.616 20.664C15.12 20.232 15.372 19.38 15.372 18.108C15.372 16.86 15.108 16.032 14.58 15.624C14.052 15.216 13.056 15.012 11.592 15.012L7.884 14.976V21.312ZM7.884 32.148H12.06C13.572 32.148 14.592 31.932 15.12 31.5C15.648 31.044 15.912 30.132 15.912 28.764C15.912 27.276 15.636 26.28 15.084 25.776C14.532 25.248 13.476 24.972 11.916 24.948H7.884V32.148ZM26.9179 13.464C28.4779 11.616 31.2499 10.692 35.2339 10.692C39.2179 10.692 41.9899 11.616 43.5499 13.464C45.1099 15.288 45.8899 18.66 45.8899 23.58C45.8899 28.5 45.1099 31.884 43.5499 33.732C41.9899 35.556 39.2179 36.468 35.2339 36.468C31.2499 36.468 28.4779 35.556 26.9179 33.732C25.3819 31.884 24.6139 28.5 24.6139 23.58C24.6139 18.66 25.3819 15.288 26.9179 13.464ZM39.0499 16.884C38.3779 15.708 37.1059 15.12 35.2339 15.12C33.3619 15.12 32.0779 15.708 31.3819 16.884C30.7099 18.06 30.3739 20.292 30.3739 23.58C30.3739 26.868 30.7099 29.1 31.3819 30.276C32.0779 31.452 33.3619 32.04 35.2339 32.04C37.1059 32.04 38.3779 31.452 39.0499 30.276C39.7459 29.1 40.0939 26.868 40.0939 23.58C40.0939 20.292 39.7459 18.06 39.0499 16.884ZM55.4513 11.16V29.7C55.4513 30.348 55.5953 30.816 55.8833 31.104C56.1953 31.392 56.6993 31.536 57.3953 31.536H65.9273L66.1793 35.712C63.7553 35.976 60.2513 36.108 55.6673 36.108C53.7473 36.108 52.3193 35.628 51.3833 34.668C50.4473 33.708 49.9793 32.424 49.9793 30.816V11.16H55.4513ZM74.6114 11.16V29.7C74.6114 30.348 74.7554 30.816 75.0434 31.104C75.3554 31.392 75.8594 31.536 76.5554 31.536H85.0874L85.3394 35.712C82.9154 35.976 79.4114 36.108 74.8274 36.108C72.9074 36.108 71.4794 35.628 70.5434 34.668C69.6074 33.708 69.1394 32.424 69.1394 30.816V11.16H74.6114ZM89.496 13.464C91.056 11.616 93.828 10.692 97.812 10.692C101.796 10.692 104.568 11.616 106.128 13.464C107.688 15.288 108.468 18.66 108.468 23.58C108.468 28.5 107.688 31.884 106.128 33.732C104.568 35.556 101.796 36.468 97.812 36.468C93.828 36.468 91.056 35.556 89.496 33.732C87.96 31.884 87.192 28.5 87.192 23.58C87.192 18.66 87.96 15.288 89.496 13.464ZM101.628 16.884C100.956 15.708 99.684 15.12 97.812 15.12C95.94 15.12 94.656 15.708 93.96 16.884C93.288 18.06 92.952 20.292 92.952 23.58C92.952 26.868 93.288 29.1 93.96 30.276C94.656 31.452 95.94 32.04 97.812 32.04C99.684 32.04 100.956 31.452 101.628 30.276C102.324 29.1 102.672 26.868 102.672 23.58C102.672 20.292 102.324 18.06 101.628 16.884ZM133.581 11.16V34.02C133.581 35.34 132.933 36 131.637 36H128.217C127.665 36 127.233 35.88 126.921 35.64C126.609 35.376 126.309 34.956 126.021 34.38L119.505 21.132C118.689 19.38 118.185 18.096 117.993 17.28H117.597C117.765 18.48 117.849 19.8 117.849 21.24V36H112.629V13.14C112.629 11.82 113.289 11.16 114.609 11.16H117.957C118.509 11.16 118.941 11.292 119.253 11.556C119.565 11.796 119.865 12.204 120.153 12.78L126.453 25.632C127.053 26.832 127.653 28.164 128.253 29.628H128.613C128.469 27.756 128.397 26.364 128.397 25.452V11.16H133.581Z" fill="#fff"/>
  <path d="M30.99 46V53H30.26V49.77H25.88V53H25.14V46H25.88V49.12H30.26V46H30.99ZM36.3348 53.06C35.6414 53.06 35.0114 52.9067 34.4448 52.6C33.8848 52.2867 33.4448 51.86 33.1248 51.32C32.8114 50.78 32.6548 50.1733 32.6548 49.5C32.6548 48.8267 32.8114 48.22 33.1248 47.68C33.4448 47.14 33.8848 46.7167 34.4448 46.41C35.0114 46.0967 35.6414 45.94 36.3348 45.94C37.0281 45.94 37.6514 46.0933 38.2048 46.4C38.7648 46.7067 39.2048 47.1333 39.5248 47.68C39.8448 48.22 40.0048 48.8267 40.0048 49.5C40.0048 50.1733 39.8448 50.7833 39.5248 51.33C39.2048 51.87 38.7648 52.2933 38.2048 52.6C37.6514 52.9067 37.0281 53.06 36.3348 53.06ZM36.3348 52.4C36.8881 52.4 37.3881 52.2767 37.8348 52.03C38.2814 51.7767 38.6314 51.43 38.8848 50.99C39.1381 50.5433 39.2648 50.0467 39.2648 49.5C39.2648 48.9533 39.1381 48.46 38.8848 48.02C38.6314 47.5733 38.2814 47.2267 37.8348 46.98C37.3881 46.7267 36.8881 46.6 36.3348 46.6C35.7814 46.6 35.2781 46.7267 34.8248 46.98C34.3781 47.2267 34.0248 47.5733 33.7648 48.02C33.5114 48.46 33.3848 48.9533 33.3848 49.5C33.3848 50.0467 33.5114 50.5433 33.7648 50.99C34.0248 51.43 34.3781 51.7767 34.8248 52.03C35.2781 52.2767 35.7814 52.4 36.3348 52.4ZM42.9258 46.64H40.4658V46H46.1258V46.64H43.6658V53H42.9258V46.64ZM52.258 52.36V53H47.308V46H52.108V46.64H48.048V49.13H51.668V49.76H48.048V52.36H52.258ZM53.9974 46H54.7374V52.36H58.6574V53H53.9974V46ZM61.738 53.06C61.218 53.06 60.718 52.9767 60.238 52.81C59.7646 52.6433 59.398 52.4233 59.138 52.15L59.428 51.58C59.6813 51.8333 60.018 52.04 60.438 52.2C60.858 52.3533 61.2913 52.43 61.738 52.43C62.3646 52.43 62.8346 52.3167 63.148 52.09C63.4613 51.8567 63.618 51.5567 63.618 51.19C63.618 50.91 63.5313 50.6867 63.358 50.52C63.1913 50.3533 62.9846 50.2267 62.738 50.14C62.4913 50.0467 62.148 49.9467 61.708 49.84C61.1813 49.7067 60.7613 49.58 60.448 49.46C60.1346 49.3333 59.8646 49.1433 59.638 48.89C59.418 48.6367 59.308 48.2933 59.308 47.86C59.308 47.5067 59.4013 47.1867 59.588 46.9C59.7746 46.6067 60.0613 46.3733 60.448 46.2C60.8346 46.0267 61.3146 45.94 61.888 45.94C62.288 45.94 62.678 45.9967 63.058 46.11C63.4446 46.2167 63.778 46.3667 64.058 46.56L63.808 47.15C63.5146 46.9567 63.2013 46.8133 62.868 46.72C62.5346 46.62 62.208 46.57 61.888 46.57C61.2746 46.57 60.8113 46.69 60.498 46.93C60.1913 47.1633 60.038 47.4667 60.038 47.84C60.038 48.12 60.1213 48.3467 60.288 48.52C60.4613 48.6867 60.6746 48.8167 60.928 48.91C61.188 48.9967 61.5346 49.0933 61.968 49.2C62.4813 49.3267 62.8946 49.4533 63.208 49.58C63.528 49.7 63.798 49.8867 64.018 50.14C64.238 50.3867 64.348 50.7233 64.348 51.15C64.348 51.5033 64.2513 51.8267 64.058 52.12C63.8713 52.4067 63.5813 52.6367 63.188 52.81C62.7946 52.9767 62.3113 53.06 61.738 53.06ZM73.5875 53.11L72.6175 52.11C72.0242 52.7433 71.2442 53.06 70.2775 53.06C69.8242 53.06 69.4175 52.9867 69.0575 52.84C68.7042 52.6867 68.4275 52.4767 68.2275 52.21C68.0275 51.9367 67.9275 51.6267 67.9275 51.28C67.9275 50.86 68.0608 50.4833 68.3275 50.15C68.5942 49.8167 69.0475 49.4667 69.6875 49.1C69.3542 48.7533 69.1242 48.46 68.9975 48.22C68.8708 47.9733 68.8075 47.7133 68.8075 47.44C68.8075 46.9933 68.9675 46.6333 69.2875 46.36C69.6075 46.0867 70.0375 45.95 70.5775 45.95C71.0775 45.95 71.4742 46.0733 71.7675 46.32C72.0608 46.5667 72.2075 46.9067 72.2075 47.34C72.2075 47.6867 72.0908 48 71.8575 48.28C71.6242 48.5533 71.2208 48.8567 70.6475 49.19L72.5675 51.17C72.7808 50.79 72.9375 50.34 73.0375 49.82L73.6175 50C73.4908 50.6267 73.2842 51.1633 72.9975 51.61L73.9975 52.64L73.5875 53.11ZM70.5775 46.48C70.2308 46.48 69.9575 46.5667 69.7575 46.74C69.5642 46.9133 69.4675 47.1433 69.4675 47.43C69.4675 47.6367 69.5208 47.8333 69.6275 48.02C69.7342 48.2067 69.9442 48.46 70.2575 48.78C70.7642 48.4867 71.1142 48.2367 71.3075 48.03C71.5008 47.8233 71.5975 47.5967 71.5975 47.35C71.5975 47.0833 71.5075 46.8733 71.3275 46.72C71.1475 46.56 70.8975 46.48 70.5775 46.48ZM70.3175 52.47C71.0908 52.47 71.7175 52.2067 72.1975 51.68L70.0875 49.51C69.5342 49.8233 69.1508 50.1067 68.9375 50.36C68.7308 50.6133 68.6275 50.8967 68.6275 51.21C68.6275 51.59 68.7808 51.8967 69.0875 52.13C69.4008 52.3567 69.8108 52.47 70.3175 52.47ZM79.8141 53.06C79.2941 53.06 78.7941 52.9767 78.3141 52.81C77.8408 52.6433 77.4741 52.4233 77.2141 52.15L77.5041 51.58C77.7575 51.8333 78.0941 52.04 78.5141 52.2C78.9341 52.3533 79.3675 52.43 79.8141 52.43C80.4408 52.43 80.9108 52.3167 81.2241 52.09C81.5375 51.8567 81.6941 51.5567 81.6941 51.19C81.6941 50.91 81.6075 50.6867 81.4341 50.52C81.2675 50.3533 81.0608 50.2267 80.8141 50.14C80.5675 50.0467 80.2241 49.9467 79.7841 49.84C79.2575 49.7067 78.8375 49.58 78.5241 49.46C78.2108 49.3333 77.9408 49.1433 77.7141 48.89C77.4941 48.6367 77.3841 48.2933 77.3841 47.86C77.3841 47.5067 77.4775 47.1867 77.6641 46.9C77.8508 46.6067 78.1375 46.3733 78.5241 46.2C78.9108 46.0267 79.3908 45.94 79.9641 45.94C80.3641 45.94 80.7541 45.9967 81.1341 46.11C81.5208 46.2167 81.8541 46.3667 82.1341 46.56L81.8841 47.15C81.5908 46.9567 81.2775 46.8133 80.9441 46.72C80.6108 46.62 80.2841 46.57 79.9641 46.57C79.3508 46.57 78.8875 46.69 78.5741 46.93C78.2675 47.1633 78.1141 47.4667 78.1141 47.84C78.1141 48.12 78.1975 48.3467 78.3641 48.52C78.5375 48.6867 78.7508 48.8167 79.0041 48.91C79.2641 48.9967 79.6108 49.0933 80.0441 49.2C80.5575 49.3267 80.9708 49.4533 81.2841 49.58C81.6041 49.7 81.8741 49.8867 82.0941 50.14C82.3141 50.3867 82.4241 50.7233 82.4241 51.15C82.4241 51.5033 82.3275 51.8267 82.1341 52.12C81.9475 52.4067 81.6575 52.6367 81.2641 52.81C80.8708 52.9767 80.3875 53.06 79.8141 53.06ZM86.8565 53.06C85.9498 53.06 85.2432 52.8 84.7365 52.28C84.2298 51.76 83.9765 51.0033 83.9765 50.01V46H84.7165V49.98C84.7165 50.7933 84.8998 51.4 85.2665 51.8C85.6332 52.2 86.1632 52.4 86.8565 52.4C87.5565 52.4 88.0898 52.2 88.4565 51.8C88.8232 51.4 89.0065 50.7933 89.0065 49.98V46H89.7265V50.01C89.7265 51.0033 89.4732 51.76 88.9665 52.28C88.4665 52.8 87.7632 53.06 86.8565 53.06ZM91.9564 46H92.6964V53H91.9564V46ZM96.334 46.64H93.874V46H99.534V46.64H97.074V53H96.334V46.64ZM105.666 52.36V53H100.716V46H105.516V46.64H101.456V49.13H105.076V49.76H101.456V52.36H105.666ZM109.336 53.06C108.816 53.06 108.316 52.9767 107.836 52.81C107.362 52.6433 106.996 52.4233 106.736 52.15L107.026 51.58C107.279 51.8333 107.616 52.04 108.036 52.2C108.456 52.3533 108.889 52.43 109.336 52.43C109.962 52.43 110.432 52.3167 110.746 52.09C111.059 51.8567 111.216 51.5567 111.216 51.19C111.216 50.91 111.129 50.6867 110.956 50.52C110.789 50.3533 110.582 50.2267 110.336 50.14C110.089 50.0467 109.746 49.9467 109.306 49.84C108.779 49.7067 108.359 49.58 108.046 49.46C107.732 49.3333 107.462 49.1433 107.236 48.89C107.016 48.6367 106.906 48.2933 106.906 47.86C106.906 47.5067 106.999 47.1867 107.186 46.9C107.372 46.6067 107.659 46.3733 108.046 46.2C108.432 46.0267 108.912 45.94 109.486 45.94C109.886 45.94 110.276 45.9967 110.656 46.11C111.042 46.2167 111.376 46.3667 111.656 46.56L111.406 47.15C111.112 46.9567 110.799 46.8133 110.466 46.72C110.132 46.62 109.806 46.57 109.486 46.57C108.872 46.57 108.409 46.69 108.096 46.93C107.789 47.1633 107.636 47.4667 107.636 47.84C107.636 48.12 107.719 48.3467 107.886 48.52C108.059 48.6867 108.272 48.8167 108.526 48.91C108.786 48.9967 109.132 49.0933 109.566 49.2C110.079 49.3267 110.492 49.4533 110.806 49.58C111.126 49.7 111.396 49.8867 111.616 50.14C111.836 50.3867 111.946 50.7233 111.946 51.15C111.946 51.5033 111.849 51.8267 111.656 52.12C111.469 52.4067 111.179 52.6367 110.786 52.81C110.392 52.9767 109.909 53.06 109.336 53.06Z" fill="#fff"/>
</svg>
