<svg width="16" height="16" viewBox="0 0 16 16" fill="none" xmlns="http://www.w3.org/2000/svg">
<path d="M7.999 0C5.8245 0 5.5535 0.0105 4.7025 0.0465C3.848 0.0885 3.27 0.221 2.76 0.419C2.22623 0.62051 1.74283 0.936008 1.3435 1.3435C0.934871 1.7419 0.619198 2.22557 0.419 2.76C0.221 3.27 0.0885 3.848 0.0465 4.7025C0.008 5.554 0 5.8245 0 7.999C0 10.1735 0.0105 10.4445 0.0465 11.2955C0.0885 12.1475 0.221 12.728 0.419 13.238C0.62051 13.7718 0.936008 14.2552 1.3435 14.6545C1.7419 15.0631 2.22557 15.3788 2.76 15.579C3.27 15.7745 3.8505 15.9095 4.7025 15.9515C5.554 15.99 5.8245 15.998 7.999 15.998C10.1735 15.998 10.4445 15.9875 11.2955 15.9515C12.1475 15.9095 12.728 15.774 13.238 15.579C13.7718 15.3775 14.2552 15.062 14.6545 14.6545C15.0637 14.2565 15.3794 13.7727 15.579 13.238C15.7745 12.728 15.9095 12.1475 15.9515 11.2955C15.99 10.444 15.998 10.1735 15.998 7.999C15.998 5.8245 15.9875 5.5535 15.9515 4.7025C15.9095 3.8505 15.774 3.267 15.579 2.76C15.3775 2.22623 15.062 1.74283 14.6545 1.3435C14.2565 0.934345 13.7727 0.61859 13.238 0.419C12.728 0.221 12.1475 0.0885 11.2955 0.0465C10.444 0.008 10.1735 0 7.999 0ZM7.999 1.44C10.1345 1.44 10.3895 1.4505 11.2335 1.4865C12.012 1.523 12.436 1.653 12.7175 1.763C13.0655 1.89146 13.3805 2.09592 13.6395 2.3615C13.9046 2.61941 14.1083 2.93367 14.2355 3.281C14.3455 3.5625 14.4755 3.9865 14.512 4.765C14.548 5.609 14.5585 5.8645 14.5585 7.9995C14.5585 10.1345 14.548 10.39 14.509 11.234C14.467 12.0125 14.337 12.4365 14.2275 12.718C14.076 13.0935 13.907 13.356 13.628 13.64C13.3681 13.9039 13.0533 14.1074 12.706 14.236C12.428 14.346 11.998 14.476 11.2165 14.5125C10.368 14.5485 10.118 14.559 7.977 14.559C5.836 14.559 5.5865 14.5485 4.737 14.5095C3.9585 14.4675 3.529 14.3375 3.2475 14.228C2.8675 14.0765 2.607 13.9075 2.328 13.6285C2.0465 13.347 1.8675 13.079 1.7295 12.7065C1.6175 12.4285 1.4895 11.9985 1.448 11.217C1.4195 10.3785 1.406 10.1185 1.406 7.9875C1.406 5.8575 1.4195 5.597 1.448 4.748C1.4895 3.9665 1.6175 3.5375 1.7295 3.2585C1.8675 2.878 2.047 2.618 2.328 2.3365C2.6065 2.058 2.8675 1.878 3.2475 1.737C3.529 1.6275 3.948 1.4975 4.7295 1.4585C5.578 1.428 5.828 1.417 7.966 1.417L7.999 1.44ZM7.999 3.8935C7.45967 3.8933 6.92559 3.99939 6.42728 4.20569C5.92897 4.41199 5.47619 4.71446 5.09483 5.09583C4.71346 5.47719 4.41099 5.92996 4.20469 6.42828C3.99839 6.92659 3.8923 7.46067 3.8925 8C3.8923 8.53933 3.99839 9.07341 4.20469 9.57172C4.41099 10.07 4.71346 10.5228 5.09483 10.9042C5.47619 11.2855 5.92897 11.588 6.42728 11.7943C6.92559 12.0006 7.45967 12.1067 7.999 12.1065C8.53833 12.1067 9.07241 12.0006 9.57072 11.7943C10.069 11.588 10.5218 11.2855 10.9032 10.9042C11.2845 10.5228 11.587 10.07 11.7933 9.57172C11.9996 9.07341 12.1057 8.53933 12.1055 8C12.1057 7.46067 11.9996 6.92659 11.7933 6.42828C11.587 5.92996 11.2845 5.47719 10.9032 5.09583C10.5218 4.71446 10.069 4.41199 9.57072 4.20569C9.07241 3.99939 8.53833 3.8933 7.999 3.8935ZM7.999 10.6665C6.525 10.6665 5.3325 9.474 5.3325 8C5.3325 6.526 6.525 5.3335 7.999 5.3335C9.473 5.3335 10.6655 6.526 10.6655 8C10.6655 9.474 9.473 10.6665 7.999 10.6665ZM13.231 3.7295C13.2307 3.98433 13.1293 4.22864 12.949 4.40874C12.7687 4.58884 12.5243 4.69 12.2695 4.69C12.1435 4.69 12.0187 4.66518 11.9023 4.61696C11.7859 4.56874 11.6801 4.49807 11.591 4.40897C11.5019 4.31987 11.4313 4.2141 11.383 4.09768C11.3348 3.98127 11.31 3.8565 11.31 3.7305C11.31 3.6045 11.3348 3.47973 11.383 3.36332C11.4313 3.2469 11.5019 3.14113 11.591 3.05203C11.6801 2.96293 11.7859 2.89226 11.9023 2.84404C12.0187 2.79582 12.1435 2.771 12.2695 2.771C12.798 2.771 13.231 3.201 13.231 3.7295Z" fill="white"/>
</svg>
