<svg width="16" height="14" viewBox="0 0 16 14" fill="none" xmlns="http://www.w3.org/2000/svg">
<path d="M15.9695 1.5487C15.3707 1.81195 14.7364 1.9858 14.087 2.0647C14.7715 1.65384 15.284 1.00887 15.5295 0.249196C14.882 0.624697 14.1773 0.891407 13.4435 1.0387C12.95 0.511425 12.2963 0.161758 11.5838 0.0439447C10.8713 -0.0738683 10.1398 0.0467595 9.5029 0.387113C8.86596 0.727466 8.35915 1.26852 8.0611 1.92632C7.76305 2.58412 7.69043 3.3219 7.8545 4.0252C5.128 3.8977 2.711 2.5877 1.0945 0.608696C0.800238 1.10914 0.646338 1.67966 0.649 2.2602C0.648599 2.79988 0.781472 3.33131 1.03582 3.80729C1.29017 4.28328 1.65812 4.68909 2.107 4.9887C1.58681 4.97297 1.07795 4.8329 0.623 4.5802V4.6197C0.622841 5.37721 0.884605 6.11147 1.36393 6.69805C1.84325 7.28463 2.51064 7.68743 3.253 7.8382C2.9718 7.91333 2.68207 7.95181 2.391 7.9527C2.1805 7.9527 1.9795 7.9322 1.779 7.8952C1.99026 8.54706 2.3995 9.11684 2.94975 9.52522C3.50001 9.93361 4.16389 10.1603 4.849 10.1737C3.68821 11.0828 2.25589 11.5759 0.7815 11.5742C0.520353 11.5752 0.259381 11.5605 0 11.5302C1.50405 12.4939 3.25318 13.0055 5.0395 13.0042C11.073 13.0042 14.37 8.0067 14.37 3.6787C14.37 3.5407 14.37 3.4002 14.3595 3.2592C15.0044 2.79697 15.5603 2.22167 16 1.5612L15.9695 1.5487Z" fill="white"/>
</svg>
